<?xml version="1.0" encoding="UTF-8"?>
<svg xmlns="http://www.w3.org/2000/svg" onmouseup="{ if(window.parent.document.onmouseup) window.parent.document.onmouseup(arguments[0]);}" viewBox="15.5 459.5 350 350" height="350" width="350"><g fill="#071b36"><path d="M344.74 643.63c2.56-2.284 4.113-5.575 4.113-9.05 0-3.474-1.463-6.766-4.113-9.05-4.206-3.567-4.847-9.876-1.463-14.264 2.103-2.743 2.834-6.218 2.193-9.6s-2.835-6.31-5.852-7.864c-4.755-2.65-6.767-8.686-4.48-13.714 1.463-3.2 1.463-6.766.093-9.875-1.463-3.107-4.113-5.484-7.404-6.583-5.303-1.555-8.504-7.132-7.223-12.435.73-3.383 0-7.04-2.013-9.69-2.194-2.835-5.212-4.57-8.687-4.847-5.485-.457-9.69-5.12-9.6-10.697 0-3.473-1.373-6.765-4.022-9.142-2.65-2.377-6.034-3.383-9.418-2.926-5.484.73-10.604-3.018-11.61-8.503-.64-3.385-2.742-6.4-5.668-8.048-3.02-1.736-6.583-2.103-9.783-.913-5.12 1.827-10.97-.732-13.165-5.854-1.37-3.108-4.022-5.577-7.223-6.674-3.384-1.097-6.948-.64-9.783 1.097-4.663 2.742-10.88 1.462-14.08-3.018-2.012-2.834-5.027-4.663-8.595-5.028-3.476-.366-6.856.73-9.326 3.108-4.023 3.75-10.332 3.75-14.355 0-2.562-2.377-6.035-3.475-9.326-3.108-3.476.366-6.584 2.194-8.595 5.028-3.2 4.57-9.326 5.852-14.08 3.017-2.926-1.83-6.492-2.194-9.783-1.098-3.2 1.006-5.943 3.565-7.223 6.674-2.195 5.03-7.955 7.68-13.167 5.853-3.2-1.1-6.767-.824-9.783.912-2.926 1.737-5.028 4.663-5.668 8.047-1.006 5.393-6.126 9.142-11.703 8.502-3.476-.366-6.858.73-9.418 2.926-2.56 2.377-4.022 5.577-4.022 9.143.092 5.578-4.114 10.24-9.6 10.698-2.378.183-4.572 1.097-6.4 2.56l-.73.64 1.554.274.184-.09c1.555-1.19 3.383-1.92 5.395-2.104 6.217-.457 10.972-5.76 10.88-12.068-.09-3.017 1.188-5.943 3.476-8.046 2.283-2.01 5.302-3.017 8.318-2.65 6.218.73 11.978-3.384 13.165-9.51.55-3.016 2.377-5.576 5.12-7.13 2.562-1.555 5.76-1.83 8.687-.915 5.942 2.01 12.435-.915 14.812-6.675 1.28-2.926 3.565-5.028 6.49-5.943 2.927-1.005 6.035-.64 8.688 1.006 5.304 3.108 12.344 1.646 15.908-3.383 1.828-2.56 4.57-4.113 7.497-4.39 3.108-.273 6.126.73 8.32 2.835 4.57 4.297 11.703 4.297 16.273 0 2.104-2.012 5.212-3.11 8.318-2.834 3.02.273 5.76 1.83 7.498 4.39 3.656 5.12 10.605 6.673 15.908 3.382 2.65-1.554 5.76-1.92 8.687-1.006 3.018 1.006 5.302 3.11 6.49 5.943 2.47 5.76 8.96 8.686 14.812 6.674 2.927-1.006 6.126-.64 8.687.914 2.65 1.646 4.478 4.114 5.12 7.13 1.097 6.126 6.947 10.24 13.074 9.51 3.106-.366 6.125.55 8.318 2.65 2.286 2.103 3.475 4.938 3.475 8.046-.092 6.217 4.664 11.52 10.88 12.068 3.02.273 5.76 1.83 7.59 4.297 1.827 2.47 2.468 5.577 1.737 8.594-1.463 6.033 2.102 12.25 8.045 14.08 2.925.913 5.394 3.016 6.58 5.76 1.28 2.833 1.19 6.125-.09 8.776-2.56 5.668-.365 12.435 5.028 15.452 2.65 1.554 4.57 4.114 5.21 7.04.64 3.108-.09 6.217-1.92 8.595-3.84 4.938-3.107 12.068 1.738 16.183 2.377 2.104 3.656 4.938 3.656 7.954 0 3.108-1.372 5.942-3.656 7.954-4.663 4.115-5.396 11.246-1.737 16.184 1.828 2.47 2.56 5.485 1.92 8.594-.64 3.02-2.56 5.578-5.12 7.04-1.19.55-2.104 1.372-2.927 2.286l-.183.184.73 1.372.457-.458c.914-1.006 1.83-1.737 2.743-2.194 2.926-1.555 5.12-4.48 5.942-7.862.73-3.475-.092-7.13-2.194-9.6-3.383-4.572-2.742-10.79 1.372-14.54zM320.512 717.872l-1.37-.457v.642c0 .09 0 .272.09.457.64 2.926 0 6.032-1.736 8.502-1.736 2.47-4.57 4.022-7.588 4.297-6.218.457-10.972 5.76-10.882 12.068 0 3.11-1.278 5.943-3.475 8.046-2.284 2.012-5.302 3.018-8.317 2.65-6.22-.73-11.98 3.384-13.166 9.51-.55 3.018-2.377 5.576-5.028 7.04-2.743 1.554-5.944 1.828-8.688.914-5.942-2.013-12.435.914-14.812 6.674-1.28 2.927-3.565 5.028-6.49 5.943-2.927 1.005-6.036.64-8.687-1.007-5.303-3.107-12.344-1.646-15.91 3.384-1.827 2.56-4.57 4.114-7.496 4.39-3.107.273-6.125-.732-8.32-2.836-2.193-2.01-5.12-3.107-8.046-3.107-3.016 0-5.85 1.1-8.136 3.108-2.103 2.012-5.21 3.11-8.32 2.835-3.017-.274-5.76-1.83-7.496-4.39-3.565-5.12-10.605-6.674-15.908-3.383-2.65 1.555-5.76 1.92-8.687 1.007-3.018-1.007-5.303-3.11-6.492-5.943-2.467-5.76-8.96-8.687-14.81-6.674-2.926 1.006-6.218.64-8.688-.915-2.65-1.646-4.48-4.113-5.118-7.13-1.1-6.127-6.95-10.24-13.075-9.51-3.11.366-6.126-.55-8.32-2.65-2.286-2.105-3.475-4.94-3.475-8.046.092-6.218-4.663-11.52-10.88-12.07-3.02-.272-5.76-1.827-7.59-4.296s-2.47-5.576-1.736-8.595c1.462-6.035-2.105-12.252-8.046-14.08-2.926-.915-5.396-3.018-6.583-5.76-1.28-2.835-1.187-5.944.092-8.778 2.56-5.668.366-12.435-5.028-15.45-2.65-1.556-4.57-4.115-5.21-7.04-.642-3.108.09-6.22 1.92-8.596 3.84-4.937 3.107-12.067-1.737-16.183-2.377-2.104-3.657-4.938-3.657-7.954 0-3.11 1.37-5.944 3.657-7.955 4.663-4.114 5.395-11.246 1.736-16.183-1.83-2.47-2.56-5.486-1.92-8.595.64-3.017 2.56-5.576 5.12-7.04 2.01-1.097 3.656-2.742 4.754-4.754l.092-.273-.823-1.372-.366.73c-1.096 2.104-2.56 3.657-4.387 4.57-2.927 1.555-5.12 4.48-5.943 7.864-.73 3.475.092 7.132 2.194 9.6 3.29 4.39 2.65 10.606-1.464 14.264-2.56 2.285-4.113 5.576-4.113 9.05 0 3.475 1.463 6.675 4.113 9.052 4.206 3.565 4.847 9.874 1.464 14.263-2.104 2.744-2.834 6.218-2.194 9.6.64 3.386 2.834 6.31 5.852 7.864 4.754 2.652 6.767 8.686 4.48 13.715-1.464 3.198-1.464 6.766-.092 9.874 1.463 3.107 4.113 5.484 7.404 6.582 5.304 1.555 8.503 7.13 7.224 12.435-.822 3.384 0 7.04 2.012 9.69 2.194 2.837 5.212 4.573 8.687 4.847 5.485.457 9.69 5.12 9.6 10.697 0 3.475 1.372 6.767 4.022 9.144 2.56 2.377 5.942 3.383 9.416 2.926 5.486-.73 10.606 3.017 11.61 8.503.643 3.383 2.744 6.398 5.67 8.045 3.02 1.737 6.583 2.104 9.783.915 5.12-1.83 10.97.73 13.164 5.85 1.372 3.11 4.022 5.58 7.224 6.677 3.384 1.097 6.948.64 9.782-1.098 4.663-2.742 10.88-1.463 14.08 3.018 2.012 2.834 5.028 4.663 8.595 5.027 3.475.368 6.856-.73 9.325-3.106 4.023-3.748 10.332-3.748 14.354 0 2.194 2.012 5.12 3.2 8.047 3.2.366 0 .915 0 1.28-.093 3.475-.363 6.582-2.192 8.594-5.026 3.2-4.57 9.326-5.852 14.08-3.018 2.926 1.828 6.492 2.193 9.783 1.098 3.2-1.006 5.943-3.565 7.223-6.676 2.194-5.118 7.863-7.68 13.166-5.85 3.2 1.096 6.767.82 9.783-.916 2.925-1.736 5.026-4.662 5.667-8.045 1.006-5.395 6.217-9.145 11.703-8.503 3.475.365 6.857-.73 9.417-2.926 2.56-2.286 4.022-5.577 4.022-9.144-.093-5.576 4.114-10.24 9.6-10.697 3.384-.272 6.49-2.01 8.687-4.846 1.92-2.74 2.65-6.216 1.92-9.507l-.185-.09z"/><path d="M198.637 521.94v-1.37h-8.594v-.184h-1.28v.183h-8.595v1.37h8.596v12.16h-8.687v1.373h18.47V534.1h-8.504v-12.16M332.215 696.66l-.64-.456-5.67-18.652.366-.55-.73-.547-5.853-18.56.367-.55-.732-.55-5.576-18.01.365-.55-.73-.55-5.67-18.284.367-.547-.73-.55-5.67-18.376.366-.55-.64-.457-5.67-18.377.366-.55-.73-.547-.55-1.554-.184.09h-33.464l-3.017-9.782-.184.09h-71.13l-2.927-9.69H59.483l-.092-.09v.09h-1.736l-3.292-10.97c-.914-2.743-3.84-4.94-6.583-4.94-1.372 0-2.56.55-3.292 1.555-.73 1.098-.914 2.56-.457 3.84l5.486 17.83.092.456 8.686 28.436.274.73 6.034 19.75 38.217 124.342c-2.835-2.377-5.76-5.118-9.052-8.23-25.874-25.872-40.14-60.158-40.14-96.638 0-9.144.916-18.194 2.652-27.063v-.183l-1.097-1.646-.184 1.097c-1.92 9.326-2.836 18.743-2.836 27.887 0 36.845 14.354 71.497 40.412 97.646 3.474 3.475 6.948 6.582 10.697 9.6v.092l.183.184c24.777 20.02 54.767 30.628 86.767 30.628 36.846 0 71.496-14.354 97.646-40.41 5.395-5.396 10.514-11.43 15.177-18.013l.365-.55-1.463-.274-.184.274c-4.847 6.674-9.69 12.434-14.904 17.555-25.873 25.874-60.16 40.137-96.64 40.137-26.515 0-52.205-7.59-74.24-21.853l-19.2-62.538.458-.092-.273-.64h115.02l3.016 9.78.183-.09h71.04l2.927 9.69h44.708v-.365l.275-.182-2.377-8.14.457-.632zm-3.383 7.68h-2.012l3.932-5.67 1.736 5.762-3.656-.092zm-107.795-18.104l-5.21 7.59-2.378-7.59h7.587zm-116.39 54.95L65.7 614.558l-6.218-20.114-.184-.73-8.595-27.978-.09-.548-5.487-17.737c-.272-1.005-.183-1.92.274-2.742.457-.64 1.28-1.006 2.194-1.006 2.193 0 4.57 1.83 5.303 4.023l4.114 13.714.185.456 13.53 44.16 43.613 142.17c-3.38-2.195-6.58-4.572-9.69-7.04zm-46.26-181.21l.09-.092h.185l5.395 4.206-2.56 3.84-1.007-.73-1.828-5.76-.184-.458-.184-.548.366-.274-.273-.184zm2.65-.093h5.76l-2.103 3.018-3.657-3.017zm13.714-.09l2.014.09-2.104 3.017-4.022-3.11 4.113.002zm11.704.09L84.35 562.9l-3.932-3.017h6.036zm9.874 0l-2.103 3.018-4.023-3.017h6.126zm19.568 0l-2.104 3.018-3.932-3.017h6.036zm29.438 0l-2.103 3.018-3.932-3.017h6.036zm4.663 7.59l-.273.365-5.304-4.113 2.65-3.933h.55l2.377 7.68zm102.31 10.423l5.21-7.497 2.286 7.496h-7.496zm38.673 9.78l3.932-5.667 1.736 5.667h-5.668zm5.943 19.385l4.022-5.76 1.736 5.76h-5.757zm5.942 19.475l3.932-5.76 1.828 5.76h-5.76zm5.944 19.473l3.932-5.76 1.827 5.76h-5.76zm5.667 19.474l4.207-6.033 1.828 6.032h-6.035zm6.308 19.384l4.115-5.853 1.735 5.853h-5.85zm9.6 12.16l-5.026 7.313h-7.315l5.76-8.32h6.31l.27 1.005zm-55.862-10.79l-5.762 8.32h-7.31l5.76-8.32h7.313zm-8.96 0l-5.762 8.32h-7.312l5.76-8.32h7.314zm-8.96 0l-5.76 8.32h-7.313l5.76-8.32h7.314zm-8.87 0l-5.76 8.32h-7.313l5.76-8.32h7.314zm-9.05 0l-5.76 8.32h-7.313l5.76-8.32h7.314zm-8.777 0l-5.762 8.32h-7.312l5.76-8.32h7.314zm-40.047-108.34l5.76-8.412 7.223.092-5.76 8.32h-7.224zm74.33 9.69l5.76-8.32h7.315l-5.76 8.32h-7.314zm-6.033 9.783l5.212-7.498 2.284 7.497h-7.497zm37.03 9.782h-7.224l5.76-8.32h6.31l.274.915-5.12 7.405zm12.067 38.856h-7.13l5.76-8.318h6.216l.274.914-5.12 7.404zm5.486 19.474h-7.133l5.762-8.32h6.58l.185.55-5.395 7.77zm-15.543 29.075l-2.562-8.32h32.55l2.47 8.32h-32.458zm-201.51-37.485l-5.21 7.496-2.286-7.496h7.498zm-6.215-19.474l-5.304 7.68-2.377-7.68h7.682zm95.816-49.92l4.298-6.218 1.92 6.217h-6.218zm9.966 8.046l-2.012-6.675h6.675l-4.663 6.674zm.55 1.645l5.76-8.32h7.313l-5.76 8.32h-7.314zm87.313 1.37l-5.76 8.32h-7.314l5.76-8.32h7.314zm-15.543 0h6.674l-4.57 6.674-2.104-6.674zm-3.474 18.103l5.303-7.68 2.377 7.68h-7.68zm25.142 1.37l-5.852 8.32h-7.224l5.76-8.32h7.316zm9.053 27.704h-7.314l5.762-8.32h7.313l-5.76 8.32zm-90.697 19.474l5.395-7.68 2.378 7.68H207.6zm-107.43-27.7h7.314l-5.853 8.317h-7.224l5.762-8.318zm16.092-.092l-5.76 8.32h-7.313l5.76-8.32h7.313zm8.96 0l-5.76 8.32h-7.313l5.76-8.32h7.314zm8.868 0l-5.76 8.32h-7.313l5.76-8.32h7.313zm8.96 0l-5.76 8.32h-7.313l5.76-8.32h7.313zm8.96 0l-5.76 8.32h-7.313l5.76-8.32h7.314zm8.87 0l-5.76 8.32h-7.314l5.76-8.32h7.313zm8.867 0l-5.76 8.32h-7.314l5.763-8.32h7.312zm9.052 0l-5.76 8.32h-7.313l5.76-8.32h7.313zm8.868 0l-5.76 8.32h-7.314l5.763-8.32h7.312zm8.96 0l-5.76 8.32h-7.314l5.763-8.32h7.312zm8.777 0l-5.76 8.32h-7.314l5.76-8.32h7.314zm-136.41-64.092l2.56-3.84 5.395 4.114-2.56 3.84-5.396-4.114zm29.44 0l2.56-3.84 5.304 4.114-2.56 3.84-5.303-4.114zm92.71 33.555l4.388-6.31 1.92 6.31h-6.31zm90.512 37.303l-2.104-6.674h6.675l-4.57 6.673zm-5.577 11.337l5.396-7.862 2.377 7.862h-7.773zm-1.737 0h-7.314l5.76-8.32h7.314l-5.76 8.32zm-46.263-8.32h7.313l-5.76 8.32h-7.314l5.76-8.32zm8.96 0h7.314l-5.76 8.32h-7.313l5.76-8.32zm8.96 0h7.313l-5.76 8.32h-7.314l5.76-8.32zm8.96 0h7.314l-5.76 8.32h-7.313l5.76-8.32zm8.96 0h7.313l-5.76 8.32h-7.313l5.76-8.32zm-44.8 0h7.314l-5.76 8.32h-6.675l-.092-.366 5.214-7.954zm61.258-1.372h-7.59l-.64-.457-.274.458h-8.044l-.64-.457-.274.458h-8.047l-.64-.457-.274.458h-8.044l-.64-.457-.275.458h-7.953l-.64-.457-.274.458h-8.046l-.64-.457-.274.458h-8.046l-.64-.457-.274.458h-7.68l-2.562-8.318h69.943l2.742 8.045-.27.273zm-71.133-.09h-7.862l5.485-7.863 2.377 7.862zm52.115-9.69l5.76-8.32h7.314l-5.76 8.32h-7.313zm-8.96 0l5.76-8.32h7.313l-5.76 8.32h-7.314zm-8.96 0l5.762-8.32h7.312l-5.76 8.32h-7.314zm-8.87 0l5.76-8.32h7.315l-5.76 8.32h-7.314zm-9.05 0l5.76-8.32h7.315l-5.76 8.32h-7.314zm-8.777 0l5.76-8.32h7.314l-5.76 8.32h-7.314zm3.932-8.322l-5.76 8.32h-7.314l5.76-8.32h7.314zm-13.442 6.674l-2.103-6.674h6.674l-4.57 6.674zm67.202-8.045h-69.668l-2.56-8.32h69.94l2.47 8.046-.182.275zm-101.12-19.474l5.76-8.32h7.313l-5.76 8.32h-7.313zm-9.052.092l5.76-8.32h7.314l-5.852 8.32h-7.222zm50.286 1.37l-5.67 8.32h-7.13l-.092-.183 5.576-8.138h7.316zm-31.27 9.692l-5.76 8.32h-7.314l5.76-8.32h7.315zm-8.96 0l-5.12 7.314-2.103-6.767-.183-.64h7.406v.094zm-8.776 8.32h-5.852l2.012-2.925 3.84 2.925zm-9.783 0h-5.852l2.012-2.925 3.84 2.925zm-9.782 0h-5.852l2.01-2.925 3.842 2.925zm-9.874 0h-5.852l2.012-2.925 3.84 2.925zm-9.783 0h-5.853l2.012-2.925 3.84 2.925zm-9.875 0h-5.853l2.103-2.925 3.75 2.925zm-9.782 0h-5.852l2.103-2.925 3.75 2.925zm-9.783 0h-5.76l2.01-2.925 3.75 2.925zm-4.938-3.657l-2.562 3.75-5.303-4.115 2.56-3.748 5.304 4.113zm71.314-16.73l-2.285-7.407h7.404l-5.12 7.406zm-65.19-18.013l2.56-3.75 5.306 4.116-2.562 3.75-5.303-4.116zm48.64 14.812l2.563-3.75 5.303 4.115-2.56 3.75-5.305-4.114zm4.573 5.12l-2.562 3.84-5.395-4.114 2.56-3.84 5.397 4.114zm-10.97-10.057l2.56-3.75 5.303 4.114-2.56 3.75-5.303-4.115zm-3.476 4.844l2.563-3.75 5.303 4.114-2.562 3.75-5.303-4.114zm4.664 5.212l-2.56 3.84-5.396-4.114 2.56-3.84 5.396 4.114zm-11.06-10.057l2.56-3.75 5.302 4.114-2.56 3.75-5.303-4.115zm-3.386 4.844l2.562-3.75 5.303 4.114-2.56 3.75-5.305-4.114zm4.572 5.303l-2.56 3.84-5.305-4.114 2.562-3.84 5.303 4.114zm-10.972-10.148l2.56-3.75 5.304 4.114-2.56 3.75-5.304-4.115zm-3.38 4.844l2.56-3.75 5.395 4.114-2.56 3.75-5.396-4.114zm4.477 5.303l-2.56 3.84-5.304-4.114 2.562-3.84 5.303 4.114zm-10.88-10.148l2.56-3.75 5.305 4.114-2.562 3.75-5.303-4.115zm-3.383 4.936l2.56-3.75 5.305 4.115-2.562 3.75-5.303-4.114zm-11.794.366l-2.562 3.75-5.303-4.115 2.56-3.75 5.305 4.115zm-4.48-5.303l2.562-3.75 5.395 4.114-2.56 3.75-5.397-4.115zm10.973 10.147l-2.56 3.84-5.303-4.114 2.56-3.84 5.304 4.114zm3.382-4.845l-2.56 3.75-5.304-4.115 2.56-3.75 5.304 4.115zm6.4 4.845l-2.56 3.84-5.303-4.114 2.56-3.84 5.303 4.114zm-5.575-6.034l-5.396-4.114 2.56-3.75 5.397 4.114-2.56 3.75zm-11.703-9.05l2.56-3.84 5.304 4.113-2.56 3.84-5.304-4.114zm-9.874 0l2.56-3.84 5.303 4.113-2.56 3.84-5.303-4.114zm-.825 1.187l5.303 4.114-2.56 3.75-5.304-4.115 2.56-3.75zm3.018 9.783l5.304 4.114-2.562 3.84-5.303-4.114 2.56-3.84zm11.702 9.05l-2.56 3.75-5.304-4.113 2.562-3.75 5.303 4.114zm9.875 0l-2.56 3.75-5.305-4.113 2.562-3.75 5.303 4.114zm9.782 0l-2.56 3.75-5.303-4.113 2.56-3.75 5.302 4.114zm9.784 0l-2.56 3.75-5.305-4.113 2.562-3.75 5.304 4.114zm9.784 0l-2.562 3.75-5.303-4.113 2.56-3.75 5.305 4.114zm9.874 0l-2.562 3.75-5.303-4.113 2.56-3.75 5.304 4.114zm9.782 0l-2.56 3.75-5.304-4.113 2.56-3.75 5.304 4.114zm-4.48-5.21l2.56-3.84 5.303 4.114-2.562 3.84-5.303-4.114zm2.287-5.76l-5.305-4.114 2.562-3.75 5.303 4.114-2.56 3.75zm-11.795-9.05l2.56-3.84 5.395 4.113-2.56 3.84-5.395-4.114zm-9.693.09l2.56-3.84 5.305 4.114-2.562 3.84-5.303-4.114zm-9.782 0l2.56-3.84 5.304 4.114-2.56 3.84-5.304-4.114zm-9.875 0l2.562-3.84 5.303 4.114-2.562 3.84-5.302-4.114zm-9.782-.09l2.56-3.84 5.304 4.113-2.56 3.84-5.304-4.114zm-16.275-4.94l2.56-3.748 5.305 4.115-2.56 3.75-5.304-4.116zm7.224 29.807l-2.56 3.84-5.305-4.114 2.56-3.84 5.304 4.114zm9.874 0l-2.56 3.84-5.396-4.114 2.562-3.84 5.394 4.114zm9.783 0l-2.56 3.84-5.395-4.114 2.56-3.84 5.396 4.114zm9.694 0l-2.562 3.84-5.303-4.114 2.56-3.84 5.304 4.114zm9.782 0l-2.56 3.84-5.304-4.114 2.56-3.84 5.304 4.114zm9.874 0l-2.56 3.84-5.304-4.114 2.56-3.84 5.304 4.114zm9.782 0l-2.56 3.84-5.304-4.114 2.56-3.84 5.304 4.114zm9.694 0l-2.562 3.84-5.303-4.114 2.56-3.84 5.306 4.114zm.914-1.097l-5.304-4.113 2.56-3.75.915.73 2.105 6.768-.275.365zm-3.02-9.874l-5.302-4.114 2.56-3.84.823.64 2.105 6.95-.184.363zm-14.72-18.836l2.56-3.75 5.305 4.115-2.56 3.748-5.304-4.114zm-9.782 0l2.562-3.75 5.303 4.115-2.562 3.748-5.302-4.114zm-9.874.093l2.56-3.75 5.396 4.114-2.56 3.75-5.396-4.113zm-9.783 0l2.563-3.75 5.303 4.114-2.56 3.75-5.305-4.113zm-9.78-.093l2.56-3.75 5.303 4.115-2.56 3.748-5.303-4.114zm-16.185-4.845l2.562-3.84 5.303 4.113-2.56 3.84-5.305-4.114zm-7.954 8.96l-5.302-4.022 2.56-3.75 3.566 2.744 1.828 1.37-2.65 3.657zm-.73 1.188l-2.562 3.84-5.303-4.114 2.47-3.84 3.564 2.743 1.83 1.37zm-2.376 5.668l5.303 4.113-2.56 3.748-5.304-4.113 2.56-3.75zm3.016 9.784l5.395 4.113-2.56 3.75-5.396-4.114 2.56-3.75zm18.104 13.987l-2.56 3.75h-.093l-5.302-4.115 2.56-3.748 5.396 4.113zm9.874 0l-2.56 3.75h-.184l-5.212-4.115 2.56-3.748 5.396 4.113zm9.782-.09l-2.56 3.748h-.092l-5.304-4.023 2.56-3.748 5.396 4.022zm9.783.09l-2.56 3.75h-.094l-5.304-4.115 2.562-3.748 5.395 4.113zm9.782 0l-2.56 3.75h-.093l-5.303-4.115 2.56-3.748 5.395 4.113zm9.874 0l-2.562 3.75h-.092l-5.303-4.115 2.56-3.748 5.396 4.113zm9.784 0l-2.56 3.75h-.093l-5.302-4.115 2.56-3.748 5.396 4.113zm4.48-4.206l.913.732 2.104 6.766-.183.366h-.183l-5.212-4.023 2.56-3.84zm27.152-.456l-5.76 8.32h-7.313l5.76-8.32h7.313zm8.778.366l-5.394 7.955h-7.313l5.76-8.32h6.856l.09.365zm4.572-10.057l-4.48 6.492-2.012-6.492h6.492zm-38.948 8.32l-2.56-8.32h33.645l2.47 8.047.092.273h-33.647zm-7.864-19.656l-5.304-4.114 2.56-3.84.915.73 2.104 6.767-.276.457zM140.67 583.29l2.563-3.84 5.303 4.113-2.56 3.84-5.305-4.114zm-9.78 0l2.56-3.84 5.303 4.113-2.56 3.84-5.303-4.114zm-9.875 0l2.56-3.84 5.304 4.113-2.56 3.84-5.305-4.114zm-9.784 0l2.56-3.84 5.397 4.113-2.562 3.84-5.394-4.114zm-4.48 4.113l-5.394-4.114 2.56-3.84 5.397 4.113-2.562 3.84zm-11.793-9.05l2.56-3.75 5.304 4.114-2.56 3.75-5.303-4.114zm-7.77 9.142l-5.304-4.022 2.56-3.933 3.566 2.743 1.827 1.37-2.65 3.842zm-9.875-.092l-5.304-4.114 2.56-3.84 5.304 4.113-2.56 3.84zM65.7 578.535c.09-.274.183-.55.273-.73l2.193-3.11 5.304 4.115-2.56 3.75-5.21-4.025zm5.487 5.85l5.302 4.115-2.56 3.75-5.306-4.115 2.563-3.75zm3.015 9.875l5.304 4.023-2.56 3.75-5.304-4.115 2.56-3.658zm8.32 13.897l-2.56 3.84-5.304-4.114 2.56-3.84 5.304 4.114zm3.018 9.783l-2.56 3.84-5.305-4.114 2.562-3.84 5.303 4.114zm1.463 8.595H81.15l2.013-2.926 3.84 2.925zm114.286-6.308l1.92 6.31h-6.31l4.39-6.31zm22.216-11.704l-5.852 8.32h-7.13l5.76-8.32h7.222zm8.96 0l-5.853 8.32h-7.223l5.76-8.32h7.316zm8.96 0l-5.852 8.32h-7.223l5.76-8.32h7.316zm8.96 0l-5.852 8.32h-7.224l5.76-8.32h7.317zm8.777 0l-5.853 8.32h-7.13l5.76-8.32h7.223zm8.96 0l-5.76 8.32h-7.314l5.76-8.32h7.313zm-78.81-1.462l-7.315.093 5.76-8.32h6.857l.09.366-5.393 7.86zm-32.092-20.296l-2.377-7.497h7.497l-5.12 7.497zm-1.463.64l-5.303-4.115 2.56-3.75.916.73 2.103 6.675-.276.458zm-11.794-9.05l2.56-3.75 5.304 4.113-2.56 3.75-5.304-4.114zm-9.692 0l2.56-3.75 5.304 4.113-2.56 3.75-5.303-4.114zm-9.874 0l2.56-3.75 5.304 4.113-2.56 3.75-5.304-4.114zm-9.782 0l2.56-3.75 5.304 4.113-2.56 3.75-5.304-4.114zm-9.783 0l2.563-3.75 5.303 4.113-2.562 3.75-5.303-4.114zm-14.262 4.112l-5.396-4.113 2.562-3.75 5.303 4.114-2.47 3.75zm-15.175-4.113l2.56-3.75 5.303 4.114-2.56 3.75-5.303-4.114zm-10.7 1.28l.092-.093 5.396 4.114-2.56 3.84-1.098-.823-1.828-5.94-.185-.64.184-.458zm3.11 9.69l5.304 4.114-2.56 3.84-1.1-.823-2.01-6.583.367-.547zm149.67 57.966l-4.48 6.4-1.92-6.4h6.4zm69.85 20.205l2.377 7.68h-7.68l5.302-7.68zm-45.805-.64l-5.76 8.32h-7.314l5.76-8.32h7.314zm8.96 0l-5.76 8.32h-7.315l5.762-8.32h7.312zm8.868 0l-5.76 8.32h-7.314l5.76-8.32h7.314zm8.96 0l-5.76 8.32h-7.313l5.76-8.32h7.314zm8.96 0l-5.76 8.32h-7.314l5.76-8.32h7.314zm8.87 0l-5.76 8.32h-7.315l5.76-8.32h7.315zm-.55-9.783h6.31l-4.39 6.31-1.92-6.31zm-1.463 0l2.377 7.68-.457.64h-7.314l-.365-.183-.185.183h-8.41l-.367-.184-.182.183h-8.32l-.364-.184-.184.183h-8.412l-.364-.184-.183.183h-8.412l-.364-.184-.184.183h-8.412l-.364-.184-.183.183h-8.23l-.364-.184-.184.183h-7.862l-2.562-8.32h69.85zm-58.697 9.692h7.314l-5.76 8.318h-7.04l-.093-.182 5.58-8.136zm68.023-9.6h7.31L295 665.48h-6.946l-.093-.364 5.49-7.955zm8.958 0h7.314l-5.76 8.318h-7.314l5.76-8.32zm-20.205-11.156l5.76-8.318h7.314l-5.853 8.318h-7.22zm-11.887-9.78l5.213-7.498 2.284 7.497h-7.498zm3.202-18.014h6.674l-4.57 6.675-2.104-6.676zm-5.122-11.153h-7.68l-.365-.183-.184.184h-8.41l-.366-.183-.183.184h-8.412l-.364-.183-.184.184h-8.41l-.366-.183-.183.184h-8.412l-.365-.183-.184.184H216.1l-.365-.183-.184.184h-8.41l-.364-.183-.184.184h-7.863l-2.562-8.32h69.852l2.652 8.046-.276.275zm-80.64-9.69l-.73-.64v.64h-8.136l-.274-.275-.274.274h-8.41l-.73-.64v.64h-8.413l-2.47-7.955-.09-.457h33.735l2.47 8.32v.09h-6.678zm-29.348-9.693l5.76-8.32h7.314l-5.853 8.32h-7.222zm8.96 0l5.76-8.32h7.314l-5.76 8.32h-7.314zm16.183 0h-7.222l5.76-8.32h6.768l.183.55-5.49 7.77zm-36.203-14.262l2.56-3.75.914.732 2.105 6.674-.273.367-5.305-4.022zm-9.785.09l2.56-3.84 5.396 4.115-2.56 3.84-5.396-4.114zm-9.69 0l2.56-3.84 5.304 4.115-2.562 3.84-5.303-4.114zm-9.784 0l2.562-3.84 5.303 4.115-2.56 3.84-5.305-4.114zm-9.874 0l2.562-3.84 5.303 4.115-2.562 3.84-5.304-4.114zM93.95 577.62l-5.302-4.114 2.56-3.84 5.304 4.114-2.56 3.84zm-15.176-4.114l2.56-3.84 5.304 4.114-2.56 3.84-5.304-4.114zm-12.434 1.28l-1.463 2.194-.457.64-1.006-.823-2.103-6.583.365-.548 5.12 3.932.184.183-.64 1.006zm4.48 24.32l5.303 4.022-2.56 3.84-1.1-.822-2.103-6.583.46-.457zm3.017 9.784l5.304 4.113-2.56 3.84-1.098-.822-2.012-6.582.367-.548zm3.108 9.874l5.303 4.113-2.56 3.75h-.823l-2.285-7.407.365-.456zm126.813 9.142l2.47 8.046-.185.274H81.518l-2.56-8.32h124.8zm-112.55 9.692h7.314l-5.76 8.32h-7.314l5.76-8.32zm118.675 9.873l2.377 7.683-.365.64H87.825l-2.56-8.32h124.617v-.002zm-11.154 17.92l5.852-8.317h7.224l-5.76 8.318h-7.317zm-8.96 0l5.76-8.317h7.313l-5.76 8.318h-7.313zm-8.87 0l5.76-8.317h7.314l-5.762 8.318H180.9zm-8.96 0l5.85-8.317h7.225l-5.76 8.318h-7.316zm-8.96 0l5.85-8.317h7.225l-5.76 8.318h-7.316zm-8.96 0l5.76-8.317h7.314l-5.76 8.318h-7.313zm-8.778 0l5.76-8.317h7.315l-5.76 8.318h-7.315zm-9.05 0l5.85-8.317h7.225l-5.76 8.318h-7.316zm-8.87 0l5.852-8.317h7.224l-5.76 8.318h-7.316zm-8.96 0l5.852-8.317h7.224l-5.76 8.318h-7.316zm-8.868 0l5.76-8.317h7.314l-5.76 8.318h-7.314zm-8.96 0l5.853-8.317h7.223l-5.76 8.318h-7.316zm-8.87 0l5.762-8.317h7.224l-5.76 8.318h-7.225zm132.024 1.374l-4.57 6.582-2.012-6.582h6.582zm66.47 9.78l2.468 7.956-.183.365H222.68l-2.56-8.32h70.037zm7.953-.09l-4.57 6.584-2.013-6.583h6.584zm3.11 8.412h-7.04v-.183l5.67-8.23h7.313l-5.942 8.413zm9.05 0h-7.313l5.76-8.32h7.314l-5.76 8.32zm8.87 0h-7.312l5.76-8.32h6.49l.274.823-5.21 7.496zm-7.497-29.166l-.64-.457-.274.457h-8.046l-.64-.457-.274.457h-7.862l-.732-.548-.272.457h-7.68l-2.562-8.32h32.55l2.56 8.41h-6.13zm-32.457-19.473l-2.56-8.32h32.457l2.56 8.32h-32.457zm18.925-18.013l-5.76 8.32h-7.313l5.76-8.32h7.314zm2.927 8.32h-7.223l5.76-8.32h6.31l.273.916-5.12 7.405zm-27.795-9.69l-2.56-8.32h32.458l2.56 8.32h-32.458zm18.835-18.104l-5.76 8.32h-7.314l5.76-8.32h7.314zm-24.868-1.37l-2.562-8.32h32.457l2.56 8.32H267.21zm-62.538 0l5.76-8.32h7.314l-5.76 8.32h-7.314zm8.96 0l5.76-8.32h7.313l-5.76 8.32h-7.314zm8.776 0l5.76-8.32h7.314l-5.76 8.32h-7.314zm9.143 0l5.763-8.32h7.312l-5.852 8.32h-7.222zm8.87 0l5.76-8.32h7.314l-5.76 8.32h-7.314zm16.092 0H249.2l5.76-8.32h7.312l-5.76 8.32zm-115.475-28.8l2.56-3.75 5.304 4.114-2.56 3.75-5.303-4.115zm-2.012.366l-2.56 3.75-5.304-4.115 2.562-3.748 5.303 4.114zm-9.69 0l-2.56 3.75-5.397-4.115 2.56-3.748 5.396 4.114zm-17.83-.367l2.562-3.75 5.395 4.114-2.56 3.75-5.396-4.115zm-4.388 4.114l-5.303-4.114 2.56-3.75 5.303 4.115-2.56 3.75zm-9.783 0l-5.303-4.114 2.56-3.75 5.306 4.115-2.562 3.75zm-15.177-4.115l2.56-3.75 5.304 4.114-2.56 3.75-5.303-4.115zm-4.48 4.114l-5.303-4.114 2.56-3.75 5.305 4.115-2.563 3.75zm-7.223-3.84l-2.56 3.748-5.395-4.113 2.65-3.658 5.304 4.02zm30.813 107.7l-5.304 7.59-2.286-7.59h7.59zm8.96 0l-5.76 8.32h-7.314l5.76-8.32h7.314zm8.96 0l-5.76 8.32h-7.314l5.76-8.32h7.314zm8.96 0l-5.76 8.32h-7.315l5.76-8.32h7.314zm8.868 0l-5.76 8.32h-7.314l5.762-8.32h7.313zm8.96 0l-5.76 8.32H132.9l5.76-8.32h7.315zm8.868 0l-5.76 8.32h-7.313l5.76-8.32h7.313zm8.868 0l-5.76 8.32h-7.312l5.76-8.32h7.313zm9.054 0l-5.76 8.32h-7.314l5.76-8.32h7.314zm8.776 0l-5.76 8.32h-7.314l5.76-8.32h7.314zm9.05 0l-5.667 8.32h-7.313l5.76-8.32h7.22zm8.96 0l-5.76 8.32h-7.312l5.76-8.32h7.313zm8.87 0l-5.76 8.32h-7.314l5.76-8.32h7.314zm1.37-1.552l-.183.183h-8.41l-.365-.183-.184.183h-8.412l-.365-.183-.183.183h-8.502l-.366-.183-.184.183h-8.41l-.367-.183-.185.183h-8.41l-.366-.183-.185.183h-8.41l-.366-.183-.185.183h-8.41l-.366-.183-.185.183h-8.41l-.366-.183-.185.183h-8.41l-.366-.183-.185.183h-8.41l-.366-.183-.185.183h-8.41l-.366-.183-.185.183h-8.41l-.366-.183-.185.183H93.31l-2.563-8.41h8.14l.363.183.184-.184h8.412l.364.184.184-.184h8.32l.273.274.274-.274h8.41l.367.184.184-.184h8.412l.365.184.184-.184h8.412l.365.184.184-.184h8.32l.274.274.273-.274h8.41l.366.184.184-.184h8.41l.366.184.184-.184h8.412l.363.184.184-.184h8.32l.273.274.273-.274h8.41l.367.184.184-.184h8.41l.366.184.183-.184h9.145l2.47 7.954-.276.457h-7.86l-.36-.183zm83.66 12.16l2.284 7.496h-7.498l5.213-7.496zm10.696 8.868l-5.76 8.32h-7.314l5.76-8.32h7.314zm13.348-20.846l-.365-.183-.185.184h-8.502l-.366-.183-.183.184h-8.412l-.365-.183-.184.184h-7.863l-2.65-8.41h32.457l.365.73 2.378 7.68h-6.126zm-44.433-87.588l5.76-8.32h7.315l-5.76 8.32h-7.314zm16.182 0h-7.312l5.76-8.32h6.125v.092l.093-.09.272 1.004-4.938 7.314zm-21.027-8.32l-4.664 6.675-2.01-6.673h6.675zm-5.76 8.41h-69.67l-2.56-8.318h69.94l2.47 8.045-.18.274zm-63.818-9.78l5.76-8.32h7.314l-5.76 8.32h-7.313zm8.96 0l5.76-8.32h7.315l-5.76 8.32h-7.314zm8.96 0l5.762-8.32h7.31l-5.76 8.32h-7.313zm8.96 0l5.76-8.32h7.315l-5.76 8.32h-7.314zm8.778 0l5.76-8.32h7.314l-5.763 8.32h-7.312zm9.05 0l5.76-8.32h7.315l-5.76 8.32h-7.314zm-49.462-8.32l-4.662 6.765-2.103-6.765h6.766zm-39.315 8.41l-2.56-8.32h33.735l2.562 8.23v.09h-33.737zm-2.194-9.783l5.76-8.32h7.314l-5.76 8.32h-7.314zm9.052 0l5.76-8.32h7.314l-5.76 8.32h-7.314zm8.868.09l5.76-8.318 6.767-.092.185.55-5.395 7.86h-7.316zm-13.806-8.41l-5.21 7.497-2.287-7.497h7.498zm-16.638 7.954l-5.304-4.113 2.56-3.75 5.304 4.023-2.56 3.84zm-4.39-7.954l-2.104 3.018-3.932-3.017h6.036zm-5.395 7.954l-5.303-4.113 2.56-3.75 5.303 4.023-2.56 3.84zm-4.388-7.954l-2.103 3.018-3.932-3.017h6.035zm-10.698 3.84l2.56-3.748 5.303 4.022-2.56 3.84-5.304-4.113zm-9.783.09l2.56-3.84 5.304 4.023-2.56 3.84-5.303-4.022zm-1.096-.913l-1.736-1.28-2.285-1.737h6.033L104.1 562.9zm-3.29 4.937l-5.304-4.113 2.47-3.75 3.655 2.743 1.738 1.28-2.558 3.84zm-15.27-4.113l2.56-3.75 5.304 4.023-2.56 3.84-5.304-4.113zm-9.783 0l2.562-3.75 5.302 4.023-2.56 3.84-5.305-4.113zm-1.92.274l-2.56 3.84-5.486-4.113 2.744-3.75 4.206 3.2 1.097.823zm130.47 120.868l5.76-8.32h7.313l-5.76 8.32h-7.313zm14.536-8.137l2.47 8.137h-8.047l5.577-8.138zm57.325 9.506h7.314l-5.76 8.32h-7.314l5.76-8.32zm8.87 0h7.313l-5.76 8.32h-7.313l5.76-8.32zm10.33 9.692l-5.21 7.59-2.38-7.59h7.59zm10.607.092h7.224l-5.854 8.32h-7.223l5.852-8.32zm8.868-.092h7.314l-5.76 8.32-7.314.092 5.76-8.412zm-135.59-127.725l4.298-6.217 1.923 6.217h-6.22z"/><path d="M325.174 657.53l.914 2.65.275-1.737c1.37-7.498 2.01-15.45 2.01-23.68 0-36.847-14.353-71.497-40.41-97.646-26.148-26.148-60.8-40.502-97.555-40.502-36.846 0-71.497 14.354-97.737 40.41-2.102 2.104-4.296 4.39-6.765 7.224l-.55.64 1.464.273.272-.183c2.104-2.468 4.3-4.847 6.583-7.13 25.783-25.784 60.16-40.046 96.642-40.046 36.57 0 70.948 14.263 96.64 40.137 25.875 25.875 40.137 60.16 40.137 96.64 0 7.773-.64 15.453-1.92 22.86v.09z"/></g></svg>